<?xml version="1.0" encoding="utf-8"?>
<!-- Generator: Adobe Illustrator 16.0.0, SVG Export Plug-In . SVG Version: 6.00 Build 0)  -->
<!DOCTYPE svg PUBLIC "-//W3C//DTD SVG 1.1//EN" "http://www.w3.org/Graphics/SVG/1.1/DTD/svg11.dtd">
<svg version="1.1" id="Layer_1" xmlns="http://www.w3.org/2000/svg" xmlns:xlink="http://www.w3.org/1999/xlink" x="0px" y="0px"
	 width="595.28px" height="314px" viewBox="0 0 595.28 314" enable-background="new 0 0 595.28 314" xml:space="preserve">
<ellipse fill="#5B2979" cx="297.64" cy="31.667" rx="344.333" ry="41"/>
<g>
	<g>
		<path fill="#5B2979" d="M5.5,7.333C5.447,4.21,4.149,1.646,1.595-0.158C0.48-0.946-1.181-0.361-1.825,0.739
			c-0.733,1.252-0.214,2.636,0.897,3.42C0.232,4.979,0.479,6.134,0.5,7.333C0.555,10.554,5.555,10.56,5.5,7.333L5.5,7.333z"/>
	</g>
</g>
<g>
	<g>
		<path fill="#5B2979" d="M-2.833,0.667C-2.609,6.83-0.748,12.53,2.175,17.929c1.248,2.304,4.525,1.102,4.659-1.262
			C7.358,7.396,5.471-1.676,3.411-10.664c-1.607,0.443-3.214,0.886-4.821,1.329c3.578,9.106,6.06,18.422,8,28
			c0.545,2.695,3.985,2.048,4.821,0c2.054-5.033,3.432-10.664,6.191-15.369c2.035-3.47,7.458-0.937,10.292-0.019
			c14.569,4.717,30.581,11.343,44.369,0.882c1.253-0.951,1.76-2.692,0.506-3.926c-8.39-8.255-23.393-4.351-33.529-2.349
			C22.519,1.185,5.18,3.435-10.998,8.923c-2.101,0.712-2.653,4.435,0,4.821c15.854,2.308,31.56-0.443,47.262-2.632
			c16.511-2.301,33.092-2.929,49.4-6.701C88.405,3.777,87.823-0.637,85-0.5C56.988,0.864,29.043,3.454,1,4.167c0,1.667,0,3.333,0,5
			c18.248-0.675,36.503-1.364,54.667-3.333c3.13-0.339,3.293-5.023,0-5C42.723,0.924,29.906,2.759,17,3.5c0,1.667,0,3.333,0,5
			c10.041-0.75,19.959-2.584,30-3.333c3.215-0.24,3.226-4.777,0-5C32.393-0.844,14.078-7.356,0.405,0.508
			c-2.232,1.284-1.16,4.549,1.262,4.659C4.125,5.278,6.541,5.722,9,5.833c2.378,0.108,3.567-3.637,1.262-4.659
			C8.308,0.309,6.465-0.278,4.333-0.5c0.222,1.637,0.443,3.274,0.665,4.911c1.736-0.617,3.554-0.86,5.333-1.333
			c3.113-0.827,1.791-5.65-1.329-4.821C7.223-1.271,5.405-1.027,3.669-0.41C0.923,0.565,1.532,4.21,4.333,4.5
			C5.524,4.635,6.66,4.966,7.738,5.492C8.159,3.939,8.58,2.386,9,0.833C6.542,0.722,4.126,0.278,1.667,0.167
			c0.42,1.553,0.841,3.106,1.262,4.659C9.376,1.117,17.656,1.858,24.78,2.48C32.214,3.129,39.554,4.652,47,5.167
			c0-1.667,0-3.333,0-5C36.959,0.917,27.041,2.75,17,3.5c-3.186,0.238-3.235,5.186,0,5c12.906-0.742,25.723-2.577,38.667-2.667
			c0-1.667,0-3.333,0-5C37.503,2.803,19.248,3.492,1,4.167c-3.211,0.119-3.23,5.082,0,5C29.043,8.454,56.988,5.864,85,4.5
			c-0.222-1.637-0.443-3.274-0.665-4.911C68.847,3.172,53.111,3.911,37.409,5.957C21.829,7.986,6.072,11.214-9.668,8.923
			c0,1.607,0,3.214,0,4.821c14.851-5.038,30.9-7.56,46.315-10.28c9.011-1.59,24.983-7.176,32.585,0.304
			c0.168-1.309,0.337-2.618,0.506-3.926C61.37,6.191,51.705,5.45,42.054,2.811C35.15,0.923,28.605-2.584,21.43-3.382
			C11.555-4.48,9.242,10.838,6.589,17.336c1.607,0,3.214,0,4.821,0c-1.94-9.579-4.422-18.894-8-28
			c-1.159-2.95-5.556-1.875-4.821,1.329C0.554-0.761,2.334,7.823,1.833,16.667c1.553-0.42,3.106-0.841,4.659-1.262
			C3.988,10.78,2.358,5.951,2.167,0.667C2.05-2.547-2.95-2.559-2.833,0.667L-2.833,0.667z"/>
	</g>
</g>
<g>
	<g>
		<path fill="#5B2979" d="M5.665,6.411c23.203-3.227,46.681-3.351,70.002-5.244c3.19-0.259,3.216-5.261,0-5
			C51.891-1.902,27.992-1.7,4.335,1.59C1.153,2.032,2.513,6.85,5.665,6.411L5.665,6.411z"/>
	</g>
</g>
<g>
	<g>
		<path fill="#5B2979" d="M514.335,2.411c17.201,2.333,34.448,1.659,51.713,0.485c5.601-0.381,10.714-1.631,16.222-2.588
			c1.173-0.204,9.143-1.582,8.557,1.785c-0.5,2.877-3.166,5.794-4.237,8.575c1.607,0.443,3.215,0.886,4.822,1.329
			c0.707-2.298,1.795-4.429,2.667-6.667c-1.523,0.199-3.047,0.398-4.57,0.597c1.655,2.336,2.941,4.635,3.748,7.403
			c1.607-0.443,3.215-0.886,4.822-1.329c-5.502-13.517-21.408-7.907-32.409-6.413c-2.142,0.291-2.423,3.68-0.597,4.569
			c4.952,2.413,10.787,1.792,15.927,0.252c1.495-0.448,2.384-2.279,1.493-3.672c-3.416-5.35-11.107-5.784-16.813-5.975
			c-6.815-0.228-14.95,0.194-21.345,2.826C541.667,4.688,542.14,8.149,545,8.5c13.668,1.681,27.016-2.453,40.667-2
			c-0.833-0.833-1.667-1.667-2.5-2.5c0.093,1.668,0.385,3.141-0.325,4.738c1.553,0.42,3.105,0.841,4.658,1.262
			c0.106-3.196,0.656-5.929,3.429-7.841c-1.01-1.309-2.02-2.618-3.029-3.926c-7.842,8.833-21.593,12.489-32.897,14.023
			c1.025,1.025,2.051,2.05,3.076,3.075c2.799-9.423,14.087-10.422,22.254-12.254c3.146-0.706,1.811-5.526-1.33-4.821
			c-10.258,2.301-22.306,4.166-25.746,15.746c-0.601,2.023,1.297,3.317,3.076,3.075c12.1-1.642,26.715-5.861,35.103-15.31
			c1.795-2.021-0.576-5.619-3.029-3.926C584.09,0.819,582.671,4.887,582.5,10c-0.079,2.367,3.628,3.581,4.658,1.262
			c1.127-2.532,1.164-4.47,1.009-7.262c-0.077-1.396-1.08-2.453-2.5-2.5c-13.651-0.453-26.999,3.681-40.667,2
			c0.222,1.637,0.443,3.274,0.665,4.911c4.798-1.975,10.355-2.345,15.475-2.6c4.436-0.22,14.199-0.99,17.036,3.451
			c0.498-1.224,0.996-2.448,1.493-3.672c-3.718,1.115-8.416,2.034-12.073,0.252c-0.199,1.523-0.398,3.046-0.597,4.569
			c7.388-1.003,22.391-6.578,26.257,2.92c1.181,2.899,5.749,1.848,4.822-1.329c-0.923-3.161-2.349-5.91-4.252-8.597
			c-1.31-1.848-3.763-1.476-4.57,0.597c-0.877,2.253-1.953,4.349-2.667,6.667c-0.966,3.138,3.688,4.273,4.822,1.329
			c1.924-4.994,7.48-10.372,1.932-15.041c-4.328-3.641-11.039-1.801-15.994-0.791c-8.738,1.782-17.498,2.207-26.418,2.603
			c-11.759,0.522-23.588,0.404-35.266-1.18C512.514-2.837,511.152,1.979,514.335,2.411L514.335,2.411z"/>
	</g>
</g>
<g>
	<g>
		<path fill="#5B2979" d="M581,1.833c2,0,4,0,6,0c3.225,0,3.225-5,0-5c-2,0-4,0-6,0C577.775-3.167,577.775,1.833,581,1.833
			L581,1.833z"/>
	</g>
</g>
</svg>
