<?xml version="1.0" encoding="utf-8"?>
<!-- Generator: Adobe Illustrator 16.0.0, SVG Export Plug-In . SVG Version: 6.00 Build 0)  -->
<!DOCTYPE svg PUBLIC "-//W3C//DTD SVG 1.1//EN" "http://www.w3.org/Graphics/SVG/1.1/DTD/svg11.dtd">
<svg version="1.1" id="Layer_1" xmlns="http://www.w3.org/2000/svg" xmlns:xlink="http://www.w3.org/1999/xlink" x="0px" y="0px"
	 width="410.733px" height="292.988px" viewBox="0 0 410.733 292.988" enable-background="new 0 0 410.733 292.988"
	 xml:space="preserve">
<g>
	<g>
		<g>
			<path fill="#FFFFFD" d="M-16.399,241.544c0-80.516,0-161.03,0-241.544c148,0,296.001,0,444.001,0c0,96.885,0,193.771,0,290.656
				c-146.498,0-292.994,0.004-439.492-0.063c-1.466-0.002-3.398,1.154-4.51-0.939c1.169-0.002,2.367-0.172,3.501,0.023
				c4.625,0.803,5.678-1.238,5.303-5.559c-0.431-4.973-0.153-10.012-0.063-15.02c0.021-1.189-0.571-3.117,1.25-3.295
				c1.945-0.193,2.446,1.609,2.204,3.152c-0.639,4.064,1.404,4.467,4.841,4.568c3.839,0.115,3.933-1.813,3.839-4.582
				c-0.044-1.336-0.61-3.457,1.75-3.361c2.28,0.09,1.595,2.178,1.612,3.52c0.078,5.676,0.185,11.359-0.022,17.029
				c-0.111,3.037,1.201,3.605,3.86,3.584c2.677-0.021,4.306-0.227,4.261-3.678c-0.179-13.689-0.143-27.385-0.021-41.077
				c0.026-2.914-1.059-3.662-3.802-3.688c-2.865-0.025-3.831,0.979-3.725,3.783c0.054,1.428,1.083,3.823-1.36,4.146
				c-2.74,0.359-2.728,2.027-2.546,3.885c0.296,3.021-0.404,4.578-3.983,4.406c-3.026-0.146-5.324-0.156-4.713-4.16
				c0.269-1.758-0.207-3.414-2.263-3.873c-1.183-0.264-1.852-0.882-1.703-2.024C-7.262,240.325-11.889,241.032-16.399,241.544z
				 M107.54,87.316c-3.156,0.307-4.901,1.891-5.896,5.069c-1.852,5.924-4.348,11.649-6.489,17.468
				c-1.287,3.494-2.646,7.534,0.831,11.556c2.142,2.476,1.983,6.429-2.466,7.864c-2.631,0.85-4.641,2.666-4.594,5.195
				c0.159,8.941-3.306,17.312-2.424,26.589c1.937,20.357,12.984,33.941,29.386,44.045c18.443,11.359,39.438,14.795,60.411,16.121
				c22.768,1.438,45.605,0.65,68.025-5.453c11.988-3.266,23.584-7.133,33.506-14.518c10.16-7.563,18.668-16.598,22.85-29.252
				c4.492-13.596,3.742-27.023,1.309-40.742c-0.748-4.213-1.799-7.729-5.883-9.539c-4.707-2.088-4.658-5.104-1.906-8.707
				c1.924-2.521,2.398-4.851,1.355-8.187c-2.086-6.672-4.932-12.991-7.453-19.465c-1.375-3.522-2.73-6.052-6.828-6.779
				c-3.066-0.543-3.625-3.065-2.648-5.867c0.967-2.772,1.186-5.421-0.451-8.125c-5.221-8.629-10.66-17.082-17.199-24.811
				c-1.688-1.995-3.373-3.163-5.887-2.875c-3.637,0.417-4.848-1.501-4.65-4.701c0.143-2.301-0.318-4.135-2.197-5.741
				C235.188,15.3,220.522,7.333,203.61,3.864c-4.53-0.93-8.895-3.646-13.602-2.563c-6.857,1.578-13.663,3.527-20.314,5.828
				c-13.96,4.828-25.145,13.71-35.094,24.451c-2.556,2.758-4.341,5.259-3.696,9.102c0.476,2.833-0.42,5.022-3.567,5.398
				c-4.312,0.515-6.577,3.325-8.409,6.838c-1.87,3.586-4.572,6.911-5.624,10.708c-1.427,5.146-6.629,10.279-1.31,16.046
				C114.17,84.355,111.174,86.021,107.54,87.316z M394.042,264.963c0,6.672,0.109,13.346-0.051,20.016
				c-0.074,3.09,0.211,4.854,4.164,4.818c3.832-0.031,4.463-1.588,4.215-4.785c-0.205-2.65-0.018-5.332-0.037-8.002
				c-0.018-2.178,0.9-3.297,3.182-3.625c7.629-1.096,12.484,2.994,12.369,10.59c-0.018,1.166-0.029,2.334-0.045,3.502
				c-0.027,2.24,1.592,2.404,3.092,2.113c1.889-0.365,4.533,1.539,5.58-1.527c1.607-4.711-1.641-12.908-5.979-15.197
				c-0.674-0.355-1.795-0.063-1.869-1.197c-0.074-1.152,0.709-1.889,1.727-2.117c3.139-0.705,5.193-4.146,5.715-5.734
				c1.287-3.92,1.098-8.674,0.211-12.814c-0.484-2.271-3.268-4.747-5.604-5.735c-2.426-1.025-2.115-4.744-5.883-4.361
				c-5.779,0.586-11.666,0.289-17.498,0.098c-2.715-0.088-3.393,0.893-3.338,3.445C394.137,251.281,394.042,258.123,394.042,264.963
				z M28.216,271.553c0,4.498,0.153,9.006-0.053,13.494c-0.146,3.186,0.38,4.75,4.227,4.754c3.938,0.002,4.202-1.748,4.167-4.838
				c-0.085-7.551,0.027-7.553,7.188-7.557c8.254-0.004,8.423,0,8.227,8.088c-0.081,3.299,0.818,4.43,4.164,4.236
				c2.856-0.164,4.998,0.139,4.883-4.043c-0.269-9.816,0.011-19.652,0.129-29.48c0.015-1.258-0.02-2.346-1.311-2.926
				c-4.842-2.182-7.382-6.923-11.229-10.235c-3.018-2.596-5.886-2.563-8.708,0.477c-1.703,1.832-3.563,3.641-5.414,5.39
				c-3.287,3.104-7.304,5.426-6.382,11.158C28.703,263.807,28.216,267.719,28.216,271.553z M107.073,265.781
				c0-6.838-0.068-13.678,0.036-20.515c0.039-2.535-0.333-4.021-3.465-4.002c-2.99,0.018-4.118,0.85-4.032,3.973
				c0.196,7.167,0.03,14.343,0.085,21.515c0.014,1.842-0.512,2.748-2.548,2.689c-1.921-0.053-2.063-1.137-2.124-2.607
				c-0.067-1.631,0.556-4.564-0.539-4.682c-6.323-0.672-0.758-9.773-7.316-9.889c0.28-3.638-1.313-5.935-3.767-8.812
				c-2.134-2.502-3.823-1.895-5.776-1.969c-2.608-0.1-1.977,2.189-1.98,3.707c-0.044,13.509,0.052,27.021-0.086,40.526
				c-0.031,3.018,0.799,3.988,3.919,4.049c3.403,0.064,4.274-1.111,4.182-4.309c-0.199-6.832-0.097-13.676-0.029-20.514
				c0.013-1.336-0.625-3.439,1.749-3.373c2.303,0.064,1.623,2.139,1.647,3.477c0.079,4.543,6.043,6.785,4.611,11.9
				c-0.013,0.045,0.546,0.357,0.842,0.361c3.198,0.043,2.512,2.412,2.595,4.305c0.195,4.465,4.179,8.055,8.568,8.09
				c2.567,0.021,3.535-0.748,3.478-3.41C106.972,279.461,107.071,272.621,107.073,265.781z M367.504,75.699
				c0.941-2.705-0.762-5.852-1.01-9.159c-0.861-11.498-5.65-21.728-11.465-31.397c-6.357-10.57-16.031-17.902-26.354-24.21
				c-3.688-2.254-7.834-4.159-12.23-5.003c-2.592-0.497-4.184,0.896-4.768,3.298c-0.57,2.356,0.777,3.814,2.857,4.5
				c8.225,2.711,15.445,7.11,22.121,12.574c9.898,8.104,15.811,18.875,19.576,30.683c4.211,13.196,3.787,26.708-0.385,39.956
				c-0.783,2.491-0.025,3.988,1.854,4.965c1.91,0.993,3.463-0.267,4.682-1.722c0.736-0.882,1.777-1.806,1.936-2.826
				C365.409,90.375,367.756,83.582,367.504,75.699z M243.379,270.311c-1.67-5.465,3.324-13.201-3.881-19.047
				c-1.869-1.516-4.99-2.541-5.313-5.737c-3.658,1.02-1.855-4.256-4.969-4.23c-2.135,0.021-8.982,3.219-9.375,5.395
				c-0.633,3.509-3.873,4.69-5.963,6.448c-1.896,1.596-2.876,2.941-2.893,5.094c-0.068,9.004-0.021,18.01-0.029,27.016
				c-0.002,2.98,1.152,4.223,4.428,4.535c5.316,0.508,4.518-2.781,4.541-5.92c0.055-7.127-0.791-6.41,6.41-6.447
				c8.564-0.043,8.727-0.023,8.965,8.824c0.086,3.123,1.455,3.426,3.98,3.475c2.793,0.057,4.344-0.41,4.164-3.758
				C243.188,281.135,243.379,276.287,243.379,270.311z M199.697,289.307c-3.049-3.199-1.293-6.717-1.001-9.617
				c1.155-11.502,0.024-22.969,0.552-34.431c0.167-3.615-2.071-3.848-4.879-3.969c-3.074-0.135-3.741,1.324-3.508,3.928
				c0.104,1.16,0.016,2.338,0.016,3.507c-0.001,13.23,0.002,13.125-13.135,12.756c-2.962-0.084-3.707-1.088-3.566-3.811
				c0.188-3.664,0.107-7.35,0.027-11.021c-0.054-2.457,1.032-5.346-3.543-5.418c-4.875-0.076-3.809,3.016-3.817,5.652
				c-0.04,12.528,0.006,25.058-0.035,37.583c-0.009,2.924-0.419,5.42,4.144,5.344c4.271-0.072,3.931-2.344,3.883-5.113
				c-0.067-4.006,0.063-8.018-0.039-12.023c-0.058-2.275,0.725-3.754,3.111-3.225c4.08,0.906,8.877-2.461,12.28,2.012
				c0.407,0.535,0.097,1.627,0.098,2.463c0.006,3.34,0.292,6.713-0.064,10.014c-0.49,4.535,1.007,6.559,5.688,5.725
				C196.863,289.488,197.847,289.473,199.697,289.307z M347.303,265.527c0,6.836,0.146,13.678-0.066,20.504
				c-0.094,2.922,0.896,3.717,3.682,3.666c8-0.145,16.004-0.055,24.006-0.045c2.469,0.002,4.938,0.607,4.879-3.516
				c-0.053-3.979-1.832-4.742-5.248-4.645c-5.662,0.162-11.336,0.053-17.004-0.029c-1.178-0.018-3.275,0.34-2.701-1.742
				c0.781-2.836,0.715-5.416-0.004-8.25c-0.549-2.17,1.336-2.684,3.197-2.676c3.334,0.016,6.686-0.199,10,0.059
				c3.465,0.268,3.879-1.555,3.615-4.27c-0.41-4.223-3.633-3.035-6.09-3.16c-2.828-0.143-5.986,0.705-8.422-0.293
				c-3.514-1.443-0.641-5.4-1.805-7.99c-1.623-3.619,0.219-4.426,3.373-4.402c5.834,0.047,11.676-0.13,17.504,0.07
				c3.096,0.107,3.535-1.354,3.525-3.933c-0.008-2.471-0.654-3.613-3.373-3.57c-8.334,0.131-16.672,0.107-25.008,0.023
				c-3-0.031-4.16,1.191-4.102,4.193C347.393,252.189,347.303,258.859,347.303,265.527z M119.717,265.193
				c0,3.338-0.108,6.682,0.036,10.012c0.104,2.363-1.062,4.957,3.009,6.221c1.509,0.467,5.216,4.111,5.264,4.955
				c0.314,5.432,4.09,2.697,6.321,3.215c1.267,0.293,2.66,0.104,3.992,0.043c2.575-0.121,5.253,0.955,6.55-3.211
				c0.457-1.467,2.799-3.83,4.595-5.457c0.701-0.635,2.703,0.063,2.325-1.752c-0.312-1.496-1.81-2.035-3.186-1.729
				c-2.903,0.646-6.781-2.158-8.517,3.234c-0.613,1.906-6.207,1.711-7.225,0.42c-1.775-2.246-6.171-3.053-5.477-6.389
				c0.801-3.85,0.441-7.602,0.652-11.389c0.254-4.566-2.355-9.807,3.887-12.803c1.715-0.824,7.708-2.872,8.079-1.334
				c1.291,5.35,5.282,3.162,8.312,3.465c1.29,0.131,3.3,0.789,3.665-1.414c0.337-2.031-1.482-1.742-2.698-2.029
				c-1.035-0.242-0.814-1.679-1.193-1.853c-2.909-1.324-3.142-5.885-6.752-5.969c-5.792-0.137-12.038-1.486-16.281,4.369
				c-2.605,3.597-6.809,6.323-5.454,11.909C120.195,260.072,119.717,262.691,119.717,265.193z M345.469,74.078
				c-0.932-5.216-1.377-12.545-4.557-19.495c-3.883-8.486-9.75-15.35-16.783-20.992c-4.053-3.25-8.842-6.254-14.557-6.655
				c-2.258-0.159-3.508,0.792-4.098,2.726c-0.627,2.052,0.715,3.094,2.391,3.748c7.541,2.945,13.523,7.873,19.131,13.677
				c4.18,4.325,6.355,9.468,8.254,14.771c3.211,8.967,2.963,18.164,0.527,27.34c-0.648,2.448-1.273,5.242,2.025,6.235
				c2.988,0.897,4.063-1.771,4.865-3.784C344.643,86.711,345.672,81.53,345.469,74.078z M268.063,268.979c0,6,0.066,12-0.027,17.998
				c-0.055,3.313,2.264,2.682,4.133,2.635c1.791-0.045,4.256,0.889,4.24-2.498c-0.049-10.998,0.645-22.059-0.34-32.971
				c-0.467-5.184,0.918-5.731,4.945-5.402c0.994,0.082,2.002-0.033,2.998,0.02c2.715,0.146,4.531-0.563,4.486-3.813
				c-0.049-3.354-2.119-3.627-4.699-3.609c-7.832,0.049-15.666,0.072-23.498-0.014c-2.605-0.029-4.324,0.115-4.395,3.596
				c-0.076,3.776,1.832,4.044,4.631,3.851c1.328-0.092,2.684,0.121,3.996-0.043c2.984-0.37,3.65,1.049,3.566,3.756
				C267.934,257.975,268.051,263.479,268.063,268.979z M322.545,269.611c0-3.668,0-7.338,0-11.006c0-9.139-0.008-9.275,8.902-9.783
				c2.877-0.163,3.172-1.497,3.176-3.778c0.004-2.299-0.301-3.777-3.197-3.73c-8.334,0.135-16.676,0.127-25.012-0.002
				c-2.752-0.043-3.309,1.176-3.344,3.604c-0.039,2.645,0.545,4.198,3.574,3.858c1.316-0.147,2.693,0.156,3.992-0.055
				c3.943-0.64,4.672,1.188,4.598,4.768c-0.225,10.836,0,21.68-0.133,32.516c-0.035,2.82,0.842,3.768,3.689,3.73
				c2.688-0.035,3.918-0.635,3.811-3.615C322.399,280.623,322.543,275.115,322.545,269.611z M316.35,76.372
				c0.125,2.438-0.992,4.559-1.521,6.811c-0.719,3.047,1.078,4.771,3.623,5.539c2.588,0.781,3.068-1.257,3.859-3.252
				c3.135-7.899,1.84-15.585-1.283-22.949c-3.025-7.132-8.979-11.729-15.838-14.927c-2.545-1.188-5.889-1.494-7.404,1.776
				c-1.504,3.247,1.479,4.206,3.654,5.348c1.021,0.536,2.098,0.979,3.107,1.535C312.493,60.617,315.54,67.848,316.35,76.372z"/>
			<path fill="#F9BA3C" d="M-16.168,243.128c4.509-0.512,9.136-1.219,8.22,5.892c-0.146,1.145,0.521,1.762,1.703,2.025
				c2.056,0.457,2.531,2.113,2.263,3.871c-0.61,4.006,1.687,4.016,4.713,4.162c3.579,0.172,4.279-1.387,3.983-4.406
				c-0.182-1.857-0.194-3.525,2.546-3.885c2.443-0.322,1.415-2.718,1.36-4.147c-0.106-2.805,0.859-3.809,3.725-3.781
				c2.743,0.023,3.828,0.771,3.802,3.686c-0.121,13.692-0.157,27.39,0.021,41.079c0.045,3.449-1.583,3.654-4.261,3.676
				c-2.659,0.021-3.972-0.545-3.86-3.582c0.207-5.67,0.101-11.354,0.023-17.031c-0.019-1.34,0.667-3.428-1.613-3.52
				c-2.36-0.094-1.794,2.025-1.75,3.361c0.093,2.771,0,4.697-3.839,4.582c-3.437-0.102-5.479-0.504-4.84-4.568
				c0.241-1.541-0.26-3.346-2.205-3.152c-1.82,0.18-1.229,2.105-1.25,3.297c-0.091,5.008-0.368,10.047,0.063,15.02
				c0.375,4.318-0.679,6.359-5.303,5.559c-1.134-0.197-2.333-0.025-3.501-0.025C-16.168,275.201-16.168,259.166-16.168,243.128z"/>
			<path fill="#463F64" d="M107.77,88.9c3.634-1.296,6.631-2.962,4.453-7.643c2.071-7.796,7.104-14.245,9.984-21.578
				c2.657-6.766,13.434-7.261,11.954-16.618c9.999-13.263,23.656-21.784,38.68-27.671c14.292-5.599,29.158-4.417,43.639,0.614
				c5.858,2.035,11.354,4.829,16.589,8.136c5.229,3.304,12.233,6.2,14.146,11.454c2.334,6.413,8.114,7.451,11.429,11.617
				c4.837,6.076,9.27,12.53,13.29,19.177c2.39,3.951,6.883,7.654,3.653,13.429c-0.833,1.491,0.961,2.384,2.223,2.688
				c3.546,0.854,5.086,3.435,6.211,6.545c2.21,6.113,4.341,12.262,6.791,18.278c1.51,3.708,1.735,6.943-1.05,10.163
				c-1.918,2.218-1.661,4.103,1.329,5.406c4.064,1.771,5.998,4.92,6.015,9.474c0.01,2.465,0.943,4.912,1.207,7.394
				c1.517,14.297,1.052,28.188-6.307,41.27c-8.995,15.994-23.1,25.482-39.895,30.574c-38.674,11.727-77.712,11.738-116.304-0.309
				c-16.127-5.031-29.729-14.588-37.482-30.422c-6.773-13.832-6.115-28.428-3.556-43.139c0.603-3.455,1.38-6.434,5.058-7.88
				c2.984-1.175,2.952-3.165,1.063-5.473c-2.048-2.5-2.469-5.174-1.425-8.387C102.383,107.016,105.022,97.94,107.77,88.9z
				 M194.16,208.353c5.176,0,10.351-0.045,15.524,0.016c3.185,0.039,4.338-1.326,4.307-4.572c-0.063-6.629,1.94-12.734,5.6-18.293
				c4.748-7.211,12.784-9.719,18.814-5.635c5.87,3.975,8.021,10.035,8.607,16.758c0.22,2.521,0.435,4.525,3.748,3.07
				c10.996-4.83,21.021-10.906,27.821-21.246c9.139-13.895,9.643-29.136,6.984-44.844c-0.997-5.89-1.14-5.916-6.339-2.584
				c-45.146,28.928-93.485,32.958-144.158,18.399c-9.32-2.679-18.181-6.465-26.074-12.325c-1.426-1.058-4.366-3.681-5.075,0.8
				c-4.626,29.21,4.043,49.869,32.335,61.587C154.792,207.159,174.366,208.749,194.16,208.353z M192.842,145.455
				c5.52-0.215,12.722,0.229,19.846-0.834c24.269-3.623,45.685-14.293,66.268-26.983c1.797-1.107,2.988-2.311,2.231-4.877
				c-2.03-6.893-4.424-13.64-7.148-20.283c-1.11-2.707-2.298-2.864-4.884-1.285c-21.892,13.372-45.765,20.847-71.32,22.268
				c-27.834,1.547-54.623-2.45-78.675-17.842c-3.537-2.263-4.065,0.246-4.765,2.405c-2.154,6.659-4.031,13.407-6.225,20.052
				c-0.923,2.798,0.277,4.429,2.246,5.979c5.409,4.256,11.302,7.675,17.642,10.346C148.259,142.911,169.497,145.496,192.842,145.455
				z M191.813,102.168c5.632,0.486,13.737-0.885,21.771-2.315c6.378-1.135,12.641-3.029,18.865-4.882
				c10.275-3.058,20.055-7.347,29.372-12.648c5.802-3.301,5.771-3.341,2.656-9.005c-3.633-6.605-8.044-12.653-12.81-18.487
				c-1.937-2.369-3.458-2.996-6.229-1.18c-11.152,7.316-23.433,11.974-36.456,14.68c-24.856,5.165-49.1,4.729-71.88-8.226
				c-2.531-1.441-3.859-0.479-5.276,1.688c-3.392,5.186-6.036,10.77-9.083,16.132c-1.997,3.512-1.521,5.322,1.943,7.565
				C144.38,98.242,166.354,101.762,191.813,102.168z M181.061,59.414c20.394,0.153,38.11-4.455,54.77-13.413
				c3.316-1.784,4.315-3.165,0.88-6.017c-29.396-24.388-66.224-22.095-92.421,5.741c-2.567,2.728-2.61,3.938,0.925,5.727
				C156.989,57.41,169.47,59.638,181.061,59.414z"/>
			<path fill="#F9BA3C" d="M107.77,88.9c-2.749,9.039-5.387,18.115-8.306,27.1c-1.043,3.213-0.623,5.885,1.425,8.387
				c1.89,2.307,1.922,4.297-1.063,5.472c-3.678,1.446-4.456,4.425-5.058,7.88c-2.56,14.71-3.218,29.306,3.556,43.14
				c7.753,15.834,21.355,25.389,37.482,30.422c38.592,12.047,77.63,12.033,116.304,0.309c16.795-5.092,30.898-14.58,39.895-30.576
				c7.357-13.082,7.821-26.971,6.307-41.269c-0.264-2.481-1.197-4.928-1.207-7.393c-0.017-4.554-1.949-7.703-6.015-9.475
				c-2.99-1.303-3.247-3.188-1.329-5.406c2.785-3.219,2.56-6.455,1.05-10.163c-2.45-6.016-4.581-12.165-6.791-18.278
				c-1.125-3.11-2.665-5.691-6.211-6.545c-1.262-0.304-3.056-1.197-2.223-2.688c3.229-5.774-1.265-9.478-3.653-13.429
				c-4.021-6.647-8.453-13.101-13.29-19.177c-3.314-4.166-9.095-5.204-11.429-11.617c-1.912-5.254-8.916-8.149-14.146-11.454
				c-5.233-3.307-10.729-6.101-16.589-8.136c-14.48-5.031-29.348-6.213-43.639-0.614c-15.023,5.887-28.681,14.408-38.68,27.671
				c1.479,9.356-9.297,9.852-11.954,16.618c-2.879,7.333-7.913,13.782-9.984,21.578c-5.32-5.767-0.117-10.9,1.311-16.046
				c1.052-3.797,3.754-7.122,5.624-10.708c1.832-3.514,4.098-6.324,8.409-6.838c3.146-0.376,4.043-2.564,3.567-5.398
				c-0.646-3.843,1.141-6.344,3.696-9.102c9.949-10.74,21.134-19.623,35.094-24.451c6.651-2.3,13.457-4.25,20.314-5.828
				c4.706-1.083,9.07,1.633,13.602,2.563c16.913,3.469,31.578,11.436,44.631,22.599c1.879,1.606,2.341,3.439,2.198,5.741
				c-0.197,3.199,1.015,5.118,4.65,4.701c2.514-0.288,4.199,0.881,5.886,2.875c6.54,7.729,11.979,16.182,17.2,24.811
				c1.637,2.704,1.417,5.353,0.451,8.125c-0.977,2.801-0.418,5.323,2.648,5.867c4.098,0.727,5.453,3.256,6.827,6.779
				c2.522,6.474,5.367,12.792,7.453,19.465c1.043,3.334,0.568,5.664-1.355,8.186c-2.751,3.604-2.801,6.619,1.907,8.707
				c4.084,1.811,5.134,5.326,5.882,9.539c2.435,13.719,3.185,27.146-1.308,40.742c-4.182,12.654-12.688,21.689-22.851,29.252
				c-9.922,7.385-21.517,11.252-33.505,14.518c-22.421,6.104-45.26,6.891-68.027,5.453c-20.973-1.326-41.966-4.762-60.41-16.121
				c-16.401-10.104-27.449-23.688-29.386-44.045c-0.882-9.275,2.583-17.648,2.424-26.589c-0.046-2.529,1.963-4.348,4.594-5.195
				c4.449-1.436,4.606-5.389,2.466-7.864c-3.478-4.021-2.118-8.062-0.831-11.556c2.142-5.819,4.638-11.543,6.489-17.468
				C102.869,90.792,104.614,89.207,107.77,88.9z"/>
			<path fill="#F9BA3C" d="M394.272,266.547c0-6.84,0.097-13.682-0.05-20.519c-0.055-2.553,0.623-3.531,3.339-3.443
				c5.832,0.191,11.718,0.486,17.497-0.1c3.767-0.381,3.458,3.336,5.883,4.363c2.337,0.988,5.118,3.462,5.604,5.733
				c0.887,4.143,1.075,8.896-0.211,12.814c-0.521,1.588-2.576,5.029-5.716,5.736c-1.018,0.229-1.8,0.965-1.726,2.117
				c0.073,1.135,1.194,0.842,1.868,1.195c4.339,2.289,7.587,10.486,5.979,15.197c-1.047,3.068-3.691,1.162-5.58,1.529
				c-1.5,0.289-3.12,0.125-3.093-2.115c0.016-1.168,0.028-2.336,0.046-3.502c0.114-7.594-4.742-11.686-12.37-10.59
				c-2.279,0.328-3.197,1.449-3.182,3.625c0.021,2.67-0.168,5.352,0.037,8.004c0.249,3.197-0.382,4.752-4.215,4.785
				c-3.953,0.035-4.237-1.73-4.163-4.818C394.383,279.893,394.272,273.219,394.272,266.547z M408.209,250.906
				c-6.825,0.16-5.303-0.82-5.772,9.201c-0.229,4.861,0.862,6.996,6.194,6.416c4.7-0.512,9.504-3.963,9.517-7.813
				C418.161,254.533,413.528,250.898,408.209,250.906z"/>
			<path fill="#F9BA3C" d="M28.447,273.137c0-3.834,0.486-7.746-0.113-11.482c-0.922-5.732,3.095-8.057,6.382-11.158
				c1.851-1.748,3.711-3.558,5.414-5.39c2.822-3.039,5.69-3.072,8.708-0.477c3.847,3.313,6.388,8.056,11.229,10.235
				c1.292,0.58,1.325,1.668,1.311,2.926c-0.118,9.828-0.396,19.664-0.129,29.48c0.114,4.182-2.026,3.879-4.883,4.043
				c-3.346,0.191-4.245-0.938-4.164-4.236c0.196-8.088,0.027-8.092-8.227-8.088c-7.159,0.004-7.272,0.006-7.188,7.557
				c0.035,3.09-0.229,4.842-4.167,4.838c-3.847-0.004-4.372-1.568-4.227-4.754C28.6,282.143,28.447,277.635,28.447,273.137z
				 M44.373,270.422c8.834-0.168,7.792,1.396,7.911-7.967c0.015-1.162-0.105-2.338,0.026-3.484c0.507-4.383-4.194-4.98-5.858-7.854
				c-0.448-0.773-4.079-1.039-5.02,0.41c-2.201,3.396-5.557,5.947-4.938,11.248C37.508,271.449,35.542,270.289,44.373,270.422z"/>
			<path fill="#F9BA3C" d="M107.302,267.365c-0.001,6.84-0.1,13.68,0.049,20.514c0.059,2.662-0.91,3.432-3.478,3.41
				c-4.391-0.035-8.374-3.625-8.568-8.09c-0.083-1.893,0.604-4.262-2.595-4.305c-0.295-0.004-0.854-0.316-0.842-0.361
				c1.433-5.115-4.532-7.357-4.611-11.9c-0.024-1.338,0.655-3.41-1.648-3.477c-2.373-0.066-1.734,2.037-1.748,3.373
				c-0.067,6.838-0.17,13.682,0.029,20.514c0.093,3.195-0.778,4.373-4.182,4.309c-3.121-0.061-3.951-1.031-3.919-4.049
				c0.139-13.508,0.042-27.02,0.086-40.526c0.005-1.518-0.627-3.805,1.98-3.707c1.953,0.074,3.643-0.533,5.776,1.969
				c2.454,2.877,4.047,5.175,3.767,8.812c6.559,0.113,0.994,9.217,7.316,9.889c1.094,0.117,0.471,3.051,0.539,4.682
				c0.061,1.473,0.202,2.555,2.124,2.607c2.037,0.059,2.563-0.848,2.548-2.689c-0.056-7.172,0.111-14.348-0.085-21.515
				c-0.086-3.123,1.042-3.955,4.032-3.973c3.132-0.021,3.504,1.467,3.465,4.002C107.234,253.689,107.303,260.527,107.302,267.365z"
				/>
			<path fill="#F9BA3C" d="M367.736,77.283c0.252,7.882-2.098,14.676-3.186,21.659c-0.158,1.02-1.199,1.944-1.937,2.826
				c-1.218,1.455-2.771,2.715-4.682,1.722c-1.879-0.977-2.637-2.475-1.853-4.965c4.172-13.248,4.595-26.76,0.385-39.956
				c-3.768-11.808-9.678-22.578-19.577-30.683c-6.675-5.464-13.896-9.863-22.121-12.574c-2.079-0.685-3.429-2.144-2.856-4.5
				c0.584-2.403,2.175-3.795,4.767-3.298c4.397,0.845,8.544,2.75,12.231,5.003c10.32,6.308,19.995,13.64,26.353,24.21
				c5.813,9.669,10.604,19.899,11.466,31.397C366.975,71.431,368.678,74.578,367.736,77.283z"/>
			<path fill="#F9BA3C" d="M243.61,271.895c0,5.979-0.191,10.824,0.066,15.645c0.18,3.348-1.371,3.814-4.164,3.76
				c-2.524-0.049-3.895-0.352-3.979-3.477c-0.239-8.848-0.399-8.867-8.965-8.822c-7.201,0.035-6.356-0.682-6.411,6.445
				c-0.022,3.139,0.775,6.43-4.541,5.922c-3.274-0.314-4.43-1.557-4.428-4.537c0.008-9.004-0.039-18.01,0.029-27.016
				c0.017-2.15,0.997-3.496,2.893-5.092c2.09-1.758,5.33-2.941,5.963-6.448c0.394-2.176,7.241-5.375,9.375-5.395
				c3.112-0.027,1.311,5.248,4.97,4.229c0.321,3.198,3.442,4.224,5.313,5.739C246.935,258.691,241.941,266.43,243.61,271.895z
				 M235.618,262.369c-0.001-2.975-0.715-2.631-3.587-8.611c-1.638-3.414-3.92-3.418-5.631-2.605
				c-2.603,1.234-4.581,3.787-6.788,5.82c-0.081,0.076,0.331,0.572,0.348,0.883c0.09,1.818,0.154,3.643,0.183,5.463
				c0.121,8.078-0.936,7.021,7.226,7.078C235.619,270.455,235.62,270.412,235.618,262.369z"/>
			<path fill="#F9BA3C" d="M199.927,290.891c-1.85,0.166-2.834,0.182-3.791,0.354c-4.683,0.836-6.18-1.188-5.688-5.723
				c0.356-3.303,0.07-6.674,0.064-10.016c-0.001-0.834,0.311-1.928-0.098-2.463c-3.402-4.471-8.2-1.104-12.28-2.012
				c-2.387-0.527-3.168,0.949-3.111,3.225c0.102,4.008-0.028,8.02,0.039,12.025c0.047,2.77,0.388,5.041-3.883,5.111
				c-4.563,0.076-4.153-2.42-4.144-5.342c0.041-12.527-0.004-25.055,0.035-37.583c0.009-2.639-1.058-5.73,3.817-5.654
				c4.576,0.072,3.489,2.963,3.543,5.418c0.08,3.673,0.161,7.356-0.027,11.022c-0.141,2.721,0.604,3.725,3.566,3.809
				c13.137,0.371,13.134,0.477,13.135-12.754c0-1.17,0.088-2.347-0.016-3.509c-0.233-2.602,0.434-4.061,3.508-3.928
				c2.808,0.123,5.046,0.355,4.879,3.971c-0.526,11.46,0.604,22.927-0.552,34.429C198.634,284.172,196.878,287.691,199.927,290.891z
				"/>
			<path fill="#F9BA3C" d="M347.534,267.111c0-6.668,0.09-13.338-0.04-20.005c-0.059-3.002,1.103-4.225,4.103-4.193
				c8.335,0.084,16.674,0.107,25.007-0.021c2.72-0.043,3.365,1.1,3.374,3.568c0.01,2.581-0.431,4.042-3.526,3.935
				c-5.829-0.201-11.669-0.023-17.504-0.07c-3.153-0.023-4.996,0.783-3.372,4.4c1.164,2.59-1.71,6.547,1.805,7.99
				c2.435,1,5.594,0.15,8.421,0.295c2.457,0.125,5.68-1.064,6.09,3.16c0.264,2.713-0.149,4.535-3.615,4.268
				c-3.314-0.256-6.666-0.041-9.999-0.057c-1.862-0.008-3.747,0.506-3.198,2.676c0.719,2.834,0.786,5.412,0.003,8.248
				c-0.573,2.082,1.525,1.727,2.703,1.742c5.668,0.082,11.342,0.191,17.004,0.029c3.416-0.098,5.194,0.666,5.248,4.646
				c0.058,4.121-2.411,3.518-4.879,3.514c-8.003-0.008-16.007-0.1-24.007,0.047c-2.784,0.051-3.773-0.744-3.682-3.666
				C347.68,280.789,347.534,273.947,347.534,267.111z"/>
			<path fill="#F9BA3C" d="M119.948,266.777c0-2.502,0.478-5.121-0.097-7.482c-1.354-5.586,2.849-8.313,5.454-11.909
				c4.243-5.855,10.49-4.506,16.281-4.369c3.61,0.084,3.843,4.645,6.752,5.97c0.379,0.172,0.158,1.609,1.193,1.852
				c1.216,0.287,3.036-0.002,2.698,2.029c-0.365,2.203-2.375,1.545-3.665,1.414c-3.029-0.303-7.021,1.885-8.312-3.465
				c-0.372-1.537-6.364,0.51-8.079,1.334c-6.242,2.996-3.632,8.234-3.887,12.803c-0.211,3.787,0.148,7.541-0.652,11.389
				c-0.694,3.336,3.701,4.143,5.477,6.389c1.018,1.291,6.611,1.484,7.225-0.42c1.734-5.395,5.613-2.588,8.517-3.234
				c1.376-0.309,2.875,0.23,3.186,1.729c0.378,1.816-1.624,1.117-2.325,1.752c-1.796,1.627-4.138,3.99-4.595,5.457
				c-1.297,4.168-3.975,3.09-6.55,3.211c-1.332,0.063-2.726,0.25-3.992-0.043c-2.23-0.518-6.007,2.217-6.321-3.215
				c-0.048-0.844-3.755-4.488-5.264-4.955c-4.07-1.264-2.906-3.855-3.009-6.221C119.838,273.459,119.948,270.115,119.948,266.777z"
				/>
			<path fill="#F9BA3C" d="M345.701,75.662c0.202,7.452-0.826,12.634-2.801,17.572c-0.804,2.013-1.877,4.682-4.864,3.784
				c-3.3-0.993-2.675-3.787-2.025-6.235c2.436-9.176,2.683-18.374-0.527-27.34c-1.897-5.304-4.075-10.446-8.254-14.771
				c-5.606-5.804-11.591-10.732-19.132-13.677c-1.676-0.654-3.017-1.695-2.391-3.748c0.591-1.934,1.84-2.885,4.098-2.726
				c5.715,0.4,10.504,3.404,14.557,6.655c7.034,5.642,12.9,12.506,16.783,20.992C344.323,63.117,344.769,70.446,345.701,75.662z"/>
			<path fill="#F9BA3C" d="M268.287,270.563c-0.005-5.5-0.122-11.004,0.046-16.498c0.083-2.705-0.582-4.125-3.567-3.754
				c-1.313,0.162-2.668-0.049-3.995,0.041c-2.799,0.193-4.707-0.072-4.632-3.849c0.069-3.48,1.788-3.625,4.396-3.598
				c7.832,0.086,15.665,0.063,23.498,0.014c2.579-0.016,4.65,0.258,4.698,3.611c0.046,3.247-1.771,3.958-4.486,3.813
				c-0.995-0.053-2.004,0.063-2.996-0.02c-4.029-0.33-5.413,0.219-4.946,5.402c0.982,10.91,0.29,21.971,0.34,32.971
				c0.016,3.385-2.449,2.451-4.241,2.498c-1.868,0.047-4.187,0.678-4.133-2.637C268.361,282.563,268.293,276.563,268.287,270.563z"
				/>
			<path fill="#F9BA3C" d="M322.776,271.195c-0.001,5.504-0.146,11.012,0.058,16.506c0.108,2.98-1.121,3.58-3.811,3.615
				c-2.848,0.035-3.726-0.91-3.689-3.73c0.133-10.836-0.092-21.68,0.134-32.516c0.074-3.58-0.653-5.406-4.597-4.768
				c-1.3,0.211-2.677-0.094-3.993,0.055c-3.03,0.34-3.614-1.215-3.574-3.858c0.035-2.43,0.591-3.646,3.344-3.604
				c8.336,0.129,16.677,0.137,25.012,0.002c2.896-0.047,3.2,1.434,3.196,3.73c-0.004,2.28-0.299,3.614-3.175,3.778
				c-8.91,0.508-8.902,0.645-8.902,9.783C322.777,263.857,322.777,267.527,322.776,271.195z"/>
			<path fill="#F9BA3C" d="M316.581,77.956c-0.81-8.524-3.856-15.755-11.801-20.12c-1.012-0.556-2.086-0.999-3.107-1.535
				c-2.177-1.143-5.158-2.102-3.654-5.348c1.517-3.27,4.858-2.964,7.404-1.776c6.859,3.198,12.813,7.795,15.837,14.927
				c3.123,7.364,4.418,15.05,1.284,22.949c-0.792,1.996-1.271,4.033-3.86,3.252c-2.545-0.768-4.341-2.492-3.623-5.539
				C315.589,82.515,316.707,80.394,316.581,77.956z"/>
			<path fill="#F9BA3C" d="M194.16,208.353c-19.794,0.396-39.368-1.191-57.902-8.869c-28.292-11.719-36.961-32.377-32.335-61.587
				c0.709-4.48,3.65-1.857,5.075-0.8c7.894,5.86,16.754,9.646,26.075,12.325c50.671,14.56,99.012,10.529,144.157-18.399
				c5.199-3.332,5.342-3.306,6.339,2.584c2.657,15.708,2.153,30.95-6.984,44.844c-6.8,10.34-16.825,16.416-27.821,21.246
				c-3.313,1.455-3.528-0.551-3.748-3.07c-0.586-6.723-2.737-12.783-8.607-16.758c-6.03-4.084-14.066-1.576-18.814,5.635
				c-3.658,5.559-5.663,11.664-5.6,18.293c0.031,3.246-1.122,4.611-4.307,4.572C204.51,208.308,199.335,208.353,194.16,208.353z"/>
			<path fill="#F9BA3C" d="M192.842,145.455c-23.346,0.041-44.583-2.544-64.785-11.056c-6.339-2.671-12.231-6.09-17.642-10.347
				c-1.969-1.549-3.169-3.18-2.246-5.979c2.193-6.645,4.069-13.394,6.225-20.052c0.699-2.159,1.229-4.667,4.765-2.405
				c24.052,15.392,50.841,19.391,78.675,17.842c25.557-1.421,49.43-8.896,71.32-22.268c2.586-1.579,3.772-1.421,4.883,1.285
				c2.727,6.643,5.119,13.39,7.149,20.283c0.757,2.567-0.436,3.771-2.231,4.877c-20.584,12.69-41.999,23.359-66.268,26.984
				C205.563,145.684,198.36,145.24,192.842,145.455z"/>
			<path fill="#F9BA3C" d="M191.813,102.168c-25.459-0.406-47.434-3.926-67.126-16.679c-3.464-2.243-3.939-4.053-1.943-7.565
				c3.048-5.362,5.692-10.946,9.083-16.132c1.417-2.166,2.745-3.128,5.276-1.688c22.78,12.955,47.023,13.391,71.88,8.226
				c13.023-2.706,25.304-7.363,36.456-14.68c2.771-1.816,4.292-1.189,6.229,1.18c4.766,5.833,9.177,11.881,12.81,18.487
				c3.114,5.664,3.146,5.704-2.656,9.005c-9.317,5.302-19.097,9.591-29.372,12.648c-6.226,1.853-12.487,3.747-18.865,4.882
				C205.551,101.283,197.444,102.654,191.813,102.168z"/>
			<path fill="#F9BA3C" d="M181.061,59.414c-11.592,0.224-24.073-2.004-35.848-7.962c-3.535-1.788-3.492-2.999-0.925-5.727
				c26.198-27.835,63.024-30.129,92.421-5.741c3.437,2.852,2.438,4.232-0.88,6.017C219.172,54.96,201.455,59.567,181.061,59.414z"/>
			<path fill="#FFFFFD" d="M408.209,250.906c5.318-0.01,9.951,3.627,9.938,7.805c-0.013,3.85-4.815,7.301-9.517,7.813
				c-5.332,0.58-6.423-1.555-6.194-6.416C402.907,250.086,401.384,251.066,408.209,250.906z"/>
			<path fill="#FFFFFD" d="M44.373,270.422c-8.83-0.133-6.864,1.027-7.876-7.646c-0.619-5.301,2.735-7.854,4.938-11.248
				c0.94-1.449,4.571-1.186,5.02-0.41c1.664,2.873,6.365,3.471,5.858,7.854c-0.132,1.146-0.012,2.322-0.026,3.484
				C52.165,271.818,53.207,270.254,44.373,270.422z"/>
			<path fill="#FFFFFD" d="M235.618,262.369c0.003,8.043,0.001,8.086-8.251,8.025c-8.16-0.057-7.104,1.002-7.226-7.078
				c-0.027-1.82-0.093-3.643-0.183-5.463c-0.017-0.309-0.429-0.807-0.348-0.883c2.207-2.031,4.187-4.586,6.788-5.82
				c1.711-0.811,3.993-0.807,5.631,2.605C234.903,259.738,235.617,259.396,235.618,262.369z"/>
		</g>
	</g>
	<rect x="-16.168" y="233.323" fill="#FFFFFF" width="443.423" height="65.339"/>
	<g>
		<g>
			<path fill="#FFFFFF" d="M10.981,298.662c0-21.779,0-43.559,0-65.339c129.233,0,258.466,0,387.7,0c0,21.78,0,43.56,0,65.339
				C269.447,298.662,140.214,298.662,10.981,298.662z M357.218,268.641c0,6.914-0.006,13.828,0.003,20.742
				c0.003,2.34,1.166,3.449,3.564,3.451c2.486,0.004,3.538-1.002,3.548-3.434c0.017-4.51-0.033-9.02,0.041-13.525
				c0.044-2.695,1.106-3.668,3.8-3.684c3.969-0.023,7.937-0.016,11.903-0.004c3.248,0.008,4.175,0.904,4.2,4.188
				c0.036,4.389-0.023,8.777,0.047,13.166c0.014,0.768,0.288,1.666,0.75,2.268c1.127,1.465,2.857,1.271,4.323,0.873
				c1.478-0.402,1.998-1.814,2.002-3.309c0.015-5.35,0.11-10.705-0.085-16.049c-0.036-1-1.204-2.014-1.972-2.918
				c-0.608-0.717-1.403-1.275-2.115-1.904c0.646-0.563,1.218-1.264,1.953-1.656c1.536-0.82,2.293-1.941,2.25-3.73
				c-0.076-3.184-0.021-6.373-0.021-9.559c-0.001-2.332-0.604-3.232-2.842-3.902c-1.354-0.406-2.13-1.2-2.458-2.571
				c-0.493-2.068-1.568-2.875-3.69-2.877c-6.975-0.004-13.948,0-20.922,0c-3.372,0-4.272,0.877-4.277,4.236
				C357.211,255.174,357.218,261.906,357.218,268.641z M88.182,271.262c0-5.834,0-11.666,0-17.498c0-2.74-0.447-3.178-2.94-4.219
				c-0.928-0.389-1.909-1.333-2.271-2.255c-0.896-2.295-1.688-3.074-4.181-3.082c-5.353-0.016-10.703-0.012-16.056-0.002
				c-1.962,0.004-2.933,0.785-3.41,2.719c-0.345,1.389-1.023,2.368-2.563,2.657c-1.723,0.32-2.768,1.668-2.769,3.402
				c-0.006,12.146-0.008,24.291,0,36.438c0.001,2.313,1.188,3.414,3.605,3.412c2.439,0,3.5-1.041,3.506-3.475
				c0.012-4.209-0.011-8.418,0.01-12.627c0.017-3.551,0.991-4.531,4.485-4.543c3.608-0.014,7.215-0.012,10.823-0.002
				c3.267,0.01,4.505,1.281,4.511,4.605c0.009,4.209-0.035,8.416,0.037,12.625c0.046,2.701,1.08,3.496,4.099,3.416
				c2.043-0.055,3.107-1.25,3.109-3.535C88.186,283.285,88.182,277.273,88.182,271.262z M205.602,271.242
				c0,6.014-0.004,12.025,0.003,18.039c0.003,2.465,1.139,3.561,3.647,3.553c2.417-0.004,3.461-1.053,3.467-3.514
				c0.01-4.33-0.022-8.658,0.018-12.988c0.028-3.074,1.099-4.119,4.156-4.139c3.788-0.023,7.576-0.02,11.364-0.004
				c2.949,0.014,4.274,1.348,4.29,4.281c0.022,4.449-0.015,8.898,0.101,13.346c0.021,0.777,0.5,2.041,1.043,2.215
				c1.395,0.445,3.036,0.785,4.401,0.449c1.396-0.346,1.739-1.859,1.731-3.402c-0.053-11.783-0.027-23.57-0.028-35.355
				c0-2.727-0.412-3.131-2.982-4.182c-0.89-0.363-1.851-1.241-2.197-2.114c-1.033-2.605-1.667-3.217-4.433-3.223
				c-5.23-0.008-10.463-0.008-15.693,0c-2.127,0.004-3.043,0.717-3.56,2.76c-0.332,1.314-0.975,2.28-2.416,2.595
				c-1.981,0.432-2.908,1.631-2.91,3.646C205.6,259.217,205.602,265.23,205.602,271.242z M16.036,271.229
				c0,6.076-0.011,12.148,0.014,18.225c0.002,0.629,0.031,1.371,0.348,1.867c0.86,1.35,3.26,2.063,4.849,1.398
				c1.474-0.613,1.989-1.855,1.982-3.486c-0.046-10.826-0.025-21.652-0.02-32.479c0-0.84-0.022-1.693,0.1-2.521
				c0.291-1.967,1.849-3.119,3.743-2.713c1.712,0.367,2.475,1.594,2.485,3.285c0.026,4.631-0.016,9.264,0.076,13.893
				c0.016,0.818,0.354,1.775,0.863,2.41c1.142,1.416,2.844,1.322,4.313,0.791c1.505-0.543,1.98-2.023,1.991-3.555
				c0.027-4.451-0.004-8.902,0.031-13.354c0.021-2.471,1.009-3.551,3.087-3.523c1.847,0.023,3.073,1.434,3.123,3.66
				c0.037,1.682,0.011,3.367,0.012,5.051c0.011,9.803-0.009,19.605,0.054,29.41c0.016,2.543,1.117,3.324,4.073,3.248
				c1.977-0.053,3.113-1.248,3.114-3.35c0.009-12.211-0.017-24.42,0.027-36.629c0.006-1.842-0.92-2.832-2.508-3.225
				c-1.569-0.391-2.52-1.14-2.882-2.79c-0.37-1.684-1.47-2.693-3.332-2.645c-1.143,0.031-2.287-0.027-3.428,0.014
				c-1.662,0.063-3.033,0.434-3.354,2.482c-0.097,0.619-0.885,1.473-1.464,1.568c-0.478,0.078-1.417-0.697-1.623-1.281
				c-0.765-2.176-2.204-3.006-4.423-2.791c-0.834,0.08-1.684,0.027-2.525,0.01c-1.83-0.039-2.962,0.828-3.319,2.615
				c-0.307,1.529-1.16,2.405-2.696,2.765c-1.812,0.426-2.712,1.707-2.712,3.605C16.035,259.199,16.036,265.215,16.036,271.229z
				 M319.314,268.6c0,5.23,0.031,10.461-0.018,15.691c-0.018,1.752,0.895,2.758,2.421,3.1c1.685,0.377,2.566,1.25,2.985,2.92
				c0.394,1.563,1.413,2.582,3.231,2.535c2.104-0.053,4.208-0.012,6.313-0.012c5.473,0,10.943,0.016,16.415-0.008
				c1.916-0.008,2.764-0.857,2.843-2.701c0.178-4.188-0.115-4.498-4.323-4.535c-0.603-0.006-1.202-0.002-1.804-0.002
				c-5.652,0-11.305,0.023-16.955-0.012c-2.754-0.016-3.832-1.129-3.859-3.822c-0.015-1.504-0.004-3.006-0.004-4.51
				c0.003-4.188,0.868-5.055,5.093-5.059c6.373-0.006,12.747,0.037,19.119-0.049c0.837-0.012,2.276-0.525,2.385-1.029
				c0.342-1.594,0.578-3.439,0.051-4.895c-0.274-0.752-2.245-1.225-3.46-1.246c-6.552-0.119-13.105-0.041-19.659-0.068
				c-2.566-0.012-3.457-0.926-3.516-3.504c-0.041-1.803-0.021-3.607-0.009-5.412c0.024-3.75,0.926-4.648,4.729-4.656
				c6.313-0.014,12.626,0,18.938-0.008c2.556-0.002,3.238-0.537,3.274-2.496c0.069-3.911-0.077-4.173-3.008-4.235
				c-7.385-0.154-14.771-0.27-22.155-0.379c-2.247-0.031-3.06,0.637-3.69,2.836c-0.39,1.357-1.089,2.317-2.65,2.571
				c-1.666,0.271-2.685,1.707-2.687,3.471C319.309,258.258,319.313,263.428,319.314,268.6z M201.892,268.682
				c0-6.977,0.004-13.955-0.002-20.935c-0.002-2.498-1.095-3.551-3.645-3.545c-2.521,0.006-3.451,0.943-3.475,3.48
				c-0.041,4.69-0.033,9.382-0.154,14.071c-0.06,2.256-1.049,3.125-3.291,3.143c-3.971,0.031-7.94,0.016-11.91,0.012
				c-3.943-0.002-4.573-0.625-4.592-4.643c-0.021-4.27,0.042-8.543-0.048-12.812c-0.017-0.807-0.386-1.764-0.915-2.367
				c-1.193-1.361-2.915-1.17-4.351-0.637c-1.51,0.559-1.818,2.084-1.817,3.625c0.012,13.774,0.003,27.55,0.01,41.325
				c0.001,2.33,1.174,3.434,3.588,3.434c2.458,0,3.519-1.025,3.524-3.459c0.013-4.271-0.017-8.541,0.013-12.813
				c0.021-3.311,1.031-4.336,4.321-4.369c3.729-0.037,7.459-0.029,11.188-0.002c3.051,0.025,4.297,1.34,4.308,4.455
				c0.016,4.33-0.003,8.66,0.066,12.99c0.012,0.729,0.214,1.59,0.643,2.15c0.792,1.035,3.51,1.496,4.697,0.863
				c1.318-0.701,1.887-1.814,1.871-3.398C201.852,282.396,201.892,275.539,201.892,268.682z M91.892,271.248
				c0,6.016-0.004,12.031,0.002,18.047c0.003,2.455,1.148,3.547,3.666,3.539c2.41-0.006,3.447-1.057,3.449-3.537
				c0.007-8.121,0-16.244,0.004-24.365c0.002-3.369-0.043-6.74,0.058-10.105c0.068-2.332,1.104-3.33,3.364-3.355
				c4.331-0.049,8.664-0.051,12.995,0c2.432,0.031,3.362,0.998,3.5,3.402c0.042,0.721,0.035,1.443,0.035,2.166
				c0.002,10.77-0.019,21.539,0.039,32.307c0.005,0.867,0.34,1.9,0.881,2.564c1.153,1.416,2.904,1.195,4.339,0.701
				c1.521-0.523,1.867-2.045,1.865-3.594c-0.009-12.033-0.013-24.064,0.005-36.098c0.003-1.861-0.932-2.928-2.647-3.314
				c-1.541-0.346-2.395-1.235-2.7-2.763c-0.357-1.783-1.478-2.648-3.309-2.645c-5.595,0.012-11.189-0.002-16.785,0.008
				c-1.974,0.002-2.971,0.773-3.415,2.709c-0.315,1.369-1.074,2.233-2.431,2.612c-2.127,0.598-2.914,1.648-2.915,3.852
				C91.891,259.336,91.892,265.291,91.892,271.248z M129.796,268.518c0,5.232,0.035,10.463-0.02,15.693
				c-0.019,1.826,0.895,2.842,2.521,3.203c1.609,0.357,2.477,1.223,2.868,2.82c0.365,1.49,1.258,2.596,2.994,2.596
				c7.695,0.006,15.394,0.016,23.09-0.008c1.867-0.006,2.68-0.896,2.735-2.803c0.015-0.48,0.006-0.961,0.004-1.443
				c-0.01-2.373-0.42-2.889-2.81-2.912c-6.673-0.068-13.348-0.047-20.021-0.082c-3.072-0.016-4.109-1.063-4.112-4.117
				c-0.008-8.48-0.006-16.957-0.002-25.438c0.002-3.646,0.929-4.574,4.565-4.578c6.374-0.006,12.749,0.039,19.121-0.049
				c0.979-0.014,2.62-0.418,2.793-0.992c0.443-1.467,0.5-3.196,0.144-4.685c-0.137-0.572-1.805-1.072-2.789-1.1
				c-7.384-0.211-14.771-0.309-22.158-0.416c-2.088-0.031-3.063,0.734-3.573,2.756c-0.357,1.416-1.134,2.298-2.628,2.606
				c-1.849,0.385-2.716,1.539-2.719,3.432C129.791,258.176,129.796,263.346,129.796,268.518z M256.972,271.965
				c0.008,0,0.015,0,0.021,0c0,5.715-0.003,11.432,0.002,17.146c0.002,2.457,1.013,3.652,3.121,3.723
				c2.693,0.09,3.928-0.982,4.083-3.574c0.033-0.541,0.013-1.084,0.013-1.625c0.001-10.77-0.006-21.537,0.006-32.305
				c0.004-3.006,0.866-3.848,3.903-3.875c2.285-0.023,4.572,0.01,6.857-0.039c0.574-0.014,1.245-0.1,1.697-0.406
				c0.91-0.619,1.473-3.665,0.892-4.921c-0.599-1.293-1.65-1.914-3.175-1.906c-9.204,0.041-18.409,0.014-27.614,0.023
				c-2.054,0.002-3.228,1.176-3.271,3.193c-0.066,2.976,0.584,3.876,3.104,3.985c2.282,0.1,4.572,0.016,6.856,0.078
				c2.542,0.07,3.474,0.984,3.491,3.537C257,260.654,256.972,266.311,256.972,271.965z M294.875,272.131c0.007,0,0.015,0,0.021,0
				c0,5.715-0.005,11.432,0.003,17.146c0.002,2.201,1.04,3.445,2.925,3.557c2.677,0.158,3.982-0.811,4.254-3.199
				c0.067-0.596,0.035-1.201,0.035-1.803c0.003-10.889-0.006-21.777,0.011-32.666c0.005-2.754,0.934-3.666,3.705-3.707
				c2.347-0.033,4.692,0.008,7.038-0.041c0.576-0.012,1.245-0.092,1.701-0.396c0.916-0.611,1.488-3.642,0.907-4.917
				c-0.59-1.295-1.64-1.926-3.165-1.92c-9.204,0.041-18.409,0.016-27.613,0.025c-2.065,0.002-3.239,1.164-3.288,3.18
				c-0.069,2.972,0.586,3.888,3.091,3.999c2.281,0.1,4.57,0.018,6.855,0.078c2.554,0.07,3.488,0.977,3.506,3.521
				C294.901,260.699,294.875,266.416,294.875,272.131z"/>
			<path fill="#F9BA3C" d="M357.218,268.641c0-6.732-0.007-13.467,0.002-20.2c0.005-3.359,0.905-4.236,4.277-4.236
				c6.974,0,13.947-0.004,20.922,0c2.122,0.002,3.197,0.809,3.69,2.877c0.328,1.371,1.104,2.165,2.458,2.571
				c2.236,0.67,2.841,1.57,2.842,3.902c0.002,3.188-0.055,6.375,0.021,9.559c0.043,1.789-0.714,2.91-2.25,3.73
				c-0.735,0.393-1.307,1.094-1.953,1.656c0.712,0.629,1.507,1.188,2.115,1.904c0.768,0.904,1.936,1.918,1.972,2.918
				c0.195,5.346,0.1,10.699,0.085,16.049c-0.004,1.494-0.524,2.906-2.002,3.309c-1.466,0.398-3.196,0.592-4.323-0.873
				c-0.462-0.602-0.736-1.5-0.75-2.268c-0.07-4.389-0.011-8.777-0.047-13.166c-0.025-3.283-0.952-4.18-4.2-4.188
				c-3.968-0.01-7.936-0.02-11.903,0.004c-2.692,0.016-3.756,0.988-3.8,3.684c-0.074,4.508-0.024,9.018-0.041,13.525
				c-0.01,2.432-1.062,3.438-3.547,3.434c-2.399-0.002-3.563-1.111-3.565-3.451C357.212,282.469,357.218,275.555,357.218,268.641z
				 M374.217,264.887c0,0,0,0.002,0,0.004c2.225,0,4.449,0.035,6.673-0.01c2.285-0.045,3.184-0.84,3.315-3.145
				c0.126-2.217,0.111-4.447,0.045-6.668c-0.079-2.621-1.066-3.58-3.689-3.604c-4.209-0.041-8.418-0.033-12.626-0.002
				c-2.146,0.016-3.395,1.111-3.507,3.264c-0.126,2.396-0.113,4.809-0.011,7.209c0.086,2.02,1.063,2.887,3.127,2.938
				C369.767,264.928,371.992,264.887,374.217,264.887z"/>
			<path fill="#F9BA3C" d="M88.182,271.262c0,6.012,0.004,12.023-0.002,18.037c-0.002,2.285-1.066,3.482-3.109,3.537
				c-3.019,0.08-4.053-0.715-4.099-3.418c-0.071-4.207-0.028-8.416-0.037-12.625c-0.006-3.324-1.245-4.596-4.511-4.604
				c-3.608-0.01-7.215-0.012-10.823,0c-3.494,0.014-4.469,0.992-4.485,4.545c-0.021,4.209,0.001,8.418-0.01,12.627
				c-0.006,2.434-1.066,3.473-3.506,3.475c-2.419,0.002-3.604-1.1-3.605-3.414c-0.007-12.145-0.006-24.291,0-36.438
				c0.001-1.734,1.046-3.08,2.769-3.402c1.54-0.289,2.219-1.269,2.563-2.657c0.478-1.934,1.447-2.713,3.411-2.717
				c5.352-0.01,10.702-0.014,16.055,0c2.493,0.008,3.284,0.787,4.181,3.084c0.361,0.922,1.343,1.866,2.271,2.253
				c2.495,1.043,2.94,1.48,2.94,4.219C88.183,259.596,88.182,265.428,88.182,271.262z M70.983,264.904
				c2.226,0,4.45,0.029,6.675-0.01c2.167-0.037,3.114-0.861,3.233-3.02c0.126-2.275,0.14-4.566,0.052-6.844
				c-0.095-2.467-1.163-3.525-3.584-3.561c-4.268-0.059-8.537-0.053-12.806,0.004c-2.049,0.025-3.252,1.178-3.344,3.244
				c-0.107,2.398-0.11,4.811-0.009,7.209c0.086,2.035,1.057,2.908,3.109,2.959C66.535,264.943,68.759,264.9,70.983,264.904z"/>
			<path fill="#F9BA3C" d="M205.602,271.242c0-6.012-0.002-12.025,0.002-18.037c0.002-2.018,0.929-3.215,2.91-3.646
				c1.441-0.314,2.084-1.282,2.416-2.597c0.517-2.041,1.433-2.756,3.56-2.758c5.23-0.008,10.462-0.01,15.693,0
				c2.766,0.004,3.398,0.615,4.433,3.221c0.348,0.873,1.309,1.751,2.197,2.114c2.57,1.051,2.982,1.455,2.982,4.184
				c0.001,11.785-0.023,23.57,0.028,35.355c0.008,1.541-0.337,3.055-1.731,3.4c-1.365,0.338-3.008-0.004-4.401-0.449
				c-0.543-0.174-1.021-1.436-1.043-2.215c-0.114-4.445-0.077-8.895-0.101-13.344c-0.016-2.938-1.341-4.27-4.29-4.281
				c-3.788-0.016-7.576-0.021-11.364,0.002c-3.059,0.021-4.128,1.066-4.157,4.141c-0.04,4.328-0.007,8.658-0.017,12.986
				c-0.006,2.463-1.05,3.51-3.467,3.516c-2.51,0.006-3.646-1.088-3.647-3.553C205.599,283.27,205.602,277.256,205.602,271.242z
				 M222.543,264.904c2.225,0,4.448,0.029,6.673-0.008c2.264-0.037,3.183-0.854,3.3-3.145c0.116-2.277,0.123-4.566,0.032-6.844
				c-0.093-2.33-1.179-3.396-3.521-3.434c-4.268-0.064-8.537-0.051-12.805-0.002c-2.072,0.025-3.298,1.152-3.395,3.193
				c-0.113,2.398-0.116,4.811-0.02,7.209c0.087,2.121,1.061,2.973,3.24,3.018C218.213,264.939,220.379,264.902,222.543,264.904z"/>
			<path fill="#F9BA3C" d="M16.036,271.229c0-6.014-0.001-12.029,0-18.043c0-1.898,0.9-3.182,2.712-3.605
				c1.537-0.359,2.391-1.235,2.695-2.765c0.357-1.787,1.49-2.654,3.32-2.615c0.842,0.018,1.691,0.07,2.525-0.01
				c2.219-0.215,3.658,0.615,4.423,2.791c0.205,0.584,1.146,1.359,1.623,1.281c0.579-0.096,1.367-0.949,1.464-1.568
				c0.319-2.049,1.691-2.42,3.353-2.482c1.142-0.041,2.286,0.018,3.429-0.014c1.862-0.049,2.961,0.961,3.332,2.645
				c0.362,1.65,1.313,2.401,2.882,2.79c1.588,0.393,2.515,1.383,2.508,3.225c-0.044,12.209-0.019,24.418-0.027,36.629
				c-0.001,2.102-1.138,3.297-3.114,3.35c-2.956,0.076-4.058-0.703-4.073-3.248c-0.063-9.803-0.042-19.605-0.054-29.41
				c-0.001-1.684,0.025-3.369-0.012-5.051c-0.049-2.227-1.276-3.637-3.123-3.66c-2.079-0.027-3.066,1.053-3.087,3.523
				c-0.035,4.451-0.004,8.902-0.031,13.354c-0.011,1.531-0.486,3.012-1.991,3.555c-1.471,0.531-3.172,0.625-4.313-0.791
				c-0.51-0.635-0.848-1.59-0.864-2.41c-0.091-4.629-0.049-9.26-0.075-13.893c-0.011-1.689-0.773-2.918-2.485-3.285
				c-1.895-0.406-3.452,0.746-3.743,2.713c-0.122,0.828-0.099,1.682-0.1,2.521c-0.006,10.826-0.026,21.652,0.02,32.479
				c0.007,1.631-0.51,2.873-1.982,3.486c-1.588,0.664-3.987-0.049-4.849-1.398c-0.316-0.496-0.346-1.238-0.348-1.867
				C16.025,283.379,16.036,277.305,16.036,271.229z"/>
			<path fill="#F9BA3C" d="M319.313,268.6c0-5.172-0.004-10.342,0.003-15.514c0.002-1.764,1.021-3.199,2.687-3.471
				c1.563-0.254,2.262-1.214,2.65-2.571c0.632-2.199,1.443-2.867,3.69-2.834c7.386,0.107,14.771,0.223,22.156,0.379
				c2.93,0.063,3.076,0.324,3.007,4.235c-0.036,1.957-0.72,2.492-3.274,2.496c-6.313,0.01-12.627-0.006-18.938,0.006
				c-3.805,0.01-4.705,0.906-4.729,4.658c-0.012,1.805-0.032,3.607,0.009,5.41c0.059,2.58,0.948,3.492,3.516,3.504
				c6.554,0.029,13.107-0.051,19.66,0.068c1.214,0.021,3.185,0.494,3.459,1.248c0.527,1.455,0.291,3.299-0.051,4.893
				c-0.107,0.506-1.548,1.02-2.385,1.029c-6.372,0.086-12.746,0.043-19.119,0.051c-4.225,0.004-5.09,0.871-5.093,5.059
				c0,1.502-0.011,3.006,0.004,4.508c0.027,2.693,1.105,3.807,3.859,3.824c5.65,0.033,11.303,0.012,16.955,0.012
				c0.602,0,1.202-0.004,1.804,0c4.208,0.039,4.501,0.348,4.323,4.535c-0.079,1.846-0.926,2.693-2.842,2.701
				c-5.473,0.023-10.943,0.01-16.415,0.01c-2.104,0-4.209-0.043-6.313,0.012c-1.818,0.047-2.839-0.975-3.23-2.537
				c-0.42-1.67-1.303-2.543-2.986-2.92c-1.526-0.342-2.438-1.346-2.421-3.1C319.346,279.061,319.314,273.83,319.313,268.6z"/>
			<path fill="#F9BA3C" d="M201.892,268.682c0,6.857-0.04,13.715,0.03,20.572c0.016,1.584-0.553,2.697-1.871,3.398
				c-1.188,0.633-3.905,0.172-4.697-0.863c-0.428-0.561-0.631-1.422-0.643-2.15c-0.069-4.33-0.051-8.66-0.066-12.99
				c-0.011-3.115-1.256-4.43-4.308-4.455c-3.729-0.027-7.459-0.035-11.188,0.002c-3.29,0.033-4.299,1.059-4.321,4.369
				c-0.029,4.271,0,8.541-0.013,12.813c-0.006,2.434-1.065,3.459-3.524,3.459c-2.414,0-3.587-1.104-3.588-3.434
				c-0.006-13.775,0.002-27.551-0.01-41.325c-0.001-1.543,0.309-3.066,1.817-3.625c1.435-0.533,3.156-0.725,4.351,0.637
				c0.529,0.604,0.898,1.561,0.915,2.367c0.09,4.269,0.027,8.542,0.048,12.812c0.019,4.018,0.648,4.641,4.592,4.643
				c3.97,0.002,7.939,0.02,11.91-0.012c2.241-0.018,3.231-0.887,3.291-3.143c0.122-4.689,0.113-9.381,0.154-14.071
				c0.022-2.537,0.953-3.475,3.475-3.48c2.55-0.006,3.643,1.047,3.645,3.545C201.896,254.727,201.892,261.705,201.892,268.682z"/>
			<path fill="#F9BA3C" d="M91.892,271.248c0-5.957-0.001-11.912,0.001-17.869c0.001-2.203,0.788-3.254,2.915-3.852
				c1.356-0.379,2.115-1.243,2.431-2.612c0.444-1.936,1.44-2.707,3.415-2.709c5.595-0.01,11.189,0.004,16.785-0.008
				c1.832-0.004,2.951,0.861,3.309,2.645c0.306,1.525,1.159,2.417,2.7,2.763c1.717,0.387,2.65,1.453,2.647,3.314
				c-0.018,12.031-0.014,24.064-0.005,36.098c0.001,1.549-0.345,3.07-1.865,3.594c-1.435,0.494-3.186,0.715-4.339-0.701
				c-0.541-0.664-0.876-1.697-0.881-2.564c-0.058-10.77-0.037-21.539-0.039-32.309c0-0.721,0.006-1.443-0.035-2.164
				c-0.137-2.404-1.067-3.371-3.5-3.402c-4.331-0.051-8.664-0.049-12.995,0c-2.261,0.025-3.295,1.023-3.364,3.355
				c-0.102,3.365-0.056,6.736-0.058,10.105c-0.005,8.121,0.002,16.244-0.004,24.365c-0.001,2.48-1.039,3.529-3.449,3.537
				c-2.518,0.008-3.663-1.084-3.666-3.539C91.888,283.279,91.892,277.264,91.892,271.248z"/>
			<path fill="#F9BA3C" d="M129.796,268.518c0-5.172-0.006-10.342,0.003-15.514c0.003-1.893,0.87-3.047,2.719-3.432
				c1.494-0.311,2.271-1.19,2.628-2.608c0.512-2.02,1.485-2.787,3.573-2.756c7.387,0.109,14.774,0.205,22.158,0.416
				c0.984,0.029,2.652,0.527,2.789,1.1c0.355,1.488,0.3,3.218-0.144,4.685c-0.173,0.576-1.813,0.98-2.793,0.994
				c-6.373,0.086-12.747,0.043-19.121,0.047c-3.637,0.004-4.563,0.932-4.565,4.58c-0.004,8.479-0.006,16.957,0.002,25.436
				c0.003,3.055,1.04,4.104,4.112,4.119c6.674,0.033,13.349,0.012,20.021,0.08c2.391,0.025,2.8,0.539,2.81,2.914
				c0.002,0.48,0.011,0.961-0.004,1.443c-0.057,1.906-0.869,2.797-2.735,2.801c-7.697,0.025-15.395,0.014-23.09,0.01
				c-1.736-0.002-2.629-1.105-2.994-2.598c-0.392-1.596-1.259-2.463-2.868-2.82c-1.626-0.361-2.539-1.377-2.52-3.203
				C129.832,278.98,129.796,273.75,129.796,268.518z"/>
			<path fill="#F9BA3C" d="M256.972,271.965c0-5.654,0.027-11.311-0.013-16.965c-0.019-2.551-0.949-3.467-3.491-3.535
				c-2.284-0.064-4.574,0.02-6.856-0.078c-2.521-0.109-3.171-1.012-3.104-3.985c0.045-2.02,1.219-3.191,3.271-3.193
				c9.205-0.012,18.41,0.018,27.614-0.025c1.523-0.008,2.576,0.613,3.175,1.906c0.581,1.258,0.02,4.302-0.892,4.923
				c-0.452,0.307-1.123,0.393-1.697,0.404c-2.285,0.049-4.572,0.016-6.857,0.039c-3.037,0.029-3.899,0.871-3.903,3.875
				c-0.012,10.77-0.005,21.537-0.006,32.305c0,0.543,0.021,1.084-0.013,1.625c-0.155,2.592-1.39,3.664-4.083,3.576
				c-2.108-0.07-3.119-1.266-3.122-3.725c-0.004-5.715-0.001-11.43-0.001-17.145C256.986,271.965,256.979,271.965,256.972,271.965z"
				/>
			<path fill="#F9BA3C" d="M294.875,272.131c0-5.715,0.025-11.432-0.014-17.146c-0.018-2.545-0.952-3.453-3.506-3.52
				c-2.285-0.063-4.574,0.02-6.855-0.08c-2.505-0.109-3.16-1.025-3.091-3.999c0.049-2.014,1.223-3.178,3.288-3.18
				c9.204-0.01,18.409,0.018,27.613-0.023c1.525-0.008,2.575,0.625,3.165,1.92c0.581,1.275,0.009,4.304-0.907,4.917
				c-0.456,0.305-1.125,0.385-1.701,0.396c-2.346,0.047-4.691,0.006-7.037,0.041c-2.772,0.039-3.701,0.951-3.706,3.705
				c-0.017,10.889-0.008,21.777-0.011,32.666c0,0.604,0.032,1.209-0.034,1.803c-0.271,2.389-1.578,3.357-4.255,3.199
				c-1.885-0.111-2.923-1.354-2.925-3.557c-0.008-5.715-0.003-11.43-0.003-17.145C294.89,272.131,294.882,272.131,294.875,272.131z"
				/>
			<path fill="#FFFFFF" d="M374.217,264.887c-2.226,0-4.45,0.041-6.673-0.014c-2.063-0.051-3.041-0.918-3.127-2.938
				c-0.104-2.4-0.115-4.813,0.011-7.209c0.112-2.152,1.359-3.248,3.507-3.264c4.208-0.031,8.417-0.039,12.626,0.002
				c2.623,0.023,3.61,0.982,3.689,3.604c0.066,2.221,0.081,4.451-0.046,6.668c-0.132,2.305-1.029,3.1-3.314,3.145
				c-2.224,0.045-4.448,0.01-6.673,0.01C374.217,264.889,374.217,264.887,374.217,264.887z"/>
			<path fill="#FFFFFF" d="M70.983,264.902c-2.225-0.002-4.449,0.041-6.673-0.016c-2.054-0.051-3.023-0.924-3.109-2.957
				c-0.103-2.4-0.099-4.811,0.009-7.209c0.092-2.068,1.295-3.219,3.344-3.246c4.269-0.055,8.538-0.063,12.806-0.002
				c2.422,0.033,3.489,1.094,3.584,3.559c0.088,2.279,0.074,4.568-0.052,6.846c-0.12,2.156-1.067,2.98-3.233,3.02
				C75.433,264.934,73.208,264.904,70.983,264.902z"/>
			<path fill="#FFFFFF" d="M222.543,264.904c-2.164-0.002-4.33,0.035-6.493-0.012c-2.181-0.045-3.153-0.896-3.24-3.018
				c-0.098-2.398-0.095-4.811,0.02-7.209c0.097-2.041,1.321-3.168,3.395-3.193c4.268-0.049,8.537-0.063,12.805,0.002
				c2.344,0.037,3.429,1.104,3.521,3.434c0.091,2.277,0.084,4.566-0.032,6.844c-0.117,2.291-1.036,3.107-3.3,3.145
				C226.992,264.934,224.767,264.904,222.543,264.904z"/>
		</g>
	</g>
</g>
</svg>
